<svg width="32" height="32" viewBox="0 0 32 32" fill="none" xmlns="http://www.w3.org/2000/svg">
<path d="M2 9.5C2 7.58594 3.53125 6 5.5 6H26.5C28.4141 6 30 7.58594 30 9.5V23.5C30 25.4688 28.4141 27 26.5 27H5.5C3.53125 27 2 25.4688 2 23.5V9.5ZM4.625 9.5V10.7578L14.0313 18.4688C15.1797 19.3984 16.7656 19.3984 17.9141 18.4688L27.375 10.7578V9.5C27.375 9.0625 26.9375 8.625 26.5 8.625H5.5C5.00781 8.625 4.625 9.0625 4.625 9.5ZM4.625 14.1484V23.5C4.625 23.9922 5.00781 24.375 5.5 24.375H26.5C26.9375 24.375 27.375 23.9922 27.375 23.5V14.1484L19.6094 20.4922C17.4766 22.2422 14.4688 22.2422 12.3359 20.4922L4.625 14.1484Z" fill="white"/>
</svg>
