<svg width="32" height="32" viewBox="0 0 32 32" fill="none" xmlns="http://www.w3.org/2000/svg">
<path d="M28.5 13.4844H28.4453C25.9297 13.4844 23.6328 12.7188 21.7734 11.3516V21.1406C21.7734 26.0625 17.7812 30 12.8594 30C7.9375 30 4 26.0625 4 21.1406C4 16.2188 7.9375 12.2266 12.8594 12.2266C13.2969 12.2266 13.6797 12.2812 14.1172 12.3359V17.2578C13.6797 17.0938 13.2969 17.0391 12.8594 17.0391C10.6172 17.0391 8.75781 18.8984 8.75781 21.1406C8.75781 23.3828 10.6172 25.2422 12.8594 25.2422C15.1016 25.2422 16.9609 23.3828 16.9609 21.1406V2H21.7734C21.7734 2.05469 21.7734 2.05469 21.7734 2.10938C21.7734 2.49219 21.7734 2.875 21.8828 3.25781C22.2109 5.0625 23.3047 6.64844 24.8359 7.63281C25.875 8.34375 27.1328 8.72656 28.4453 8.72656C28.4453 8.72656 28.4453 8.72656 28.5 8.72656V13.4844Z" fill="white"/>
</svg>
