<svg width="32" height="32" viewBox="0 0 32 32" fill="none" xmlns="http://www.w3.org/2000/svg">
<path d="M8.25 29.9375H2.4375V11.25H8.25V29.9375ZM5.3125 8.75C3.5 8.75 2 7.1875 2 5.3125C2 3.5 3.5 2 5.3125 2C7.1875 2 8.6875 3.5 8.6875 5.3125C8.6875 7.1875 7.1875 8.75 5.3125 8.75ZM29.9375 29.9375H24.1875V20.875C24.1875 18.6875 24.125 15.9375 21.125 15.9375C18.125 15.9375 17.6875 18.25 17.6875 20.6875V29.9375H11.875V11.25H17.4375V13.8125H17.5C18.3125 12.375 20.1875 10.8125 23 10.8125C28.875 10.8125 30 14.6875 30 19.6875V29.9375H29.9375Z" fill="white"/>
</svg>
