<svg width="32" height="32" viewBox="0 0 32 32" fill="none" xmlns="http://www.w3.org/2000/svg">
<path d="M16.0313 8.78125C19.9688 8.78125 23.2188 12.0313 23.2188 15.9688C23.2188 19.9688 19.9688 23.1563 16.0313 23.1563C12.0313 23.1563 8.84375 19.9688 8.84375 15.9688C8.84375 12.0313 12.0313 8.78125 16.0313 8.78125ZM16.0313 20.6563C18.5938 20.6563 20.6563 18.5938 20.6563 15.9688C20.6563 13.4063 18.5938 11.3438 16.0313 11.3438C13.4063 11.3438 11.3438 13.4063 11.3438 15.9688C11.3438 18.5938 13.4688 20.6563 16.0313 20.6563ZM25.1563 8.53125C25.1563 9.46875 24.4063 10.2188 23.4688 10.2188C22.5313 10.2188 21.7813 9.46875 21.7813 8.53125C21.7813 7.59375 22.5313 6.84375 23.4688 6.84375C24.4063 6.84375 25.1563 7.59375 25.1563 8.53125ZM29.9063 10.2188C30.0313 12.5313 30.0313 19.4688 29.9063 21.7813C29.7813 24.0313 29.2813 25.9688 27.6563 27.6563C26.0313 29.2813 24.0313 29.7813 21.7813 29.9063C19.4688 30.0313 12.5313 30.0313 10.2188 29.9063C7.96875 29.7813 6.03125 29.2813 4.34375 27.6563C2.71875 25.9688 2.21875 24.0313 2.09375 21.7813C1.96875 19.4688 1.96875 12.5313 2.09375 10.2188C2.21875 7.96875 2.71875 5.96875 4.34375 4.34375C6.03125 2.71875 7.96875 2.21875 10.2188 2.09375C12.5313 1.96875 19.4688 1.96875 21.7813 2.09375C24.0313 2.21875 26.0313 2.71875 27.6563 4.34375C29.2813 5.96875 29.7813 7.96875 29.9063 10.2188ZM26.9063 24.2188C27.6563 22.4063 27.4688 18.0313 27.4688 15.9688C27.4688 13.9688 27.6563 9.59375 26.9063 7.71875C26.4063 6.53125 25.4688 5.53125 24.2813 5.09375C22.4063 4.34375 18.0313 4.53125 16.0313 4.53125C13.9688 4.53125 9.59375 4.34375 7.78125 5.09375C6.53125 5.59375 5.59375 6.53125 5.09375 7.71875C4.34375 9.59375 4.53125 13.9688 4.53125 15.9688C4.53125 18.0313 4.34375 22.4063 5.09375 24.2188C5.59375 25.4688 6.53125 26.4063 7.78125 26.9063C9.59375 27.6563 13.9688 27.4688 16.0313 27.4688C18.0313 27.4688 22.4063 27.6563 24.2813 26.9063C25.4688 26.4063 26.4688 25.4688 26.9063 24.2188Z" fill="white"/>
</svg>
