<svg width="32" height="32" viewBox="0 0 32 32" fill="none" xmlns="http://www.w3.org/2000/svg">
<path d="M6.86369 16.0906L7.1266 18.9387L6.86369 21.9182C6.86369 22.0497 6.77606 22.0935 6.68843 22.0935C6.55698 22.0935 6.46934 22.0497 6.46934 21.9182L6.25026 18.9387L6.46934 16.0906C6.46934 16.0029 6.55698 15.9153 6.68843 15.9153C6.77606 15.9153 6.86369 16.0029 6.86369 16.0906ZM7.78385 14.075C7.9153 14.075 8.00294 14.1626 8.00294 14.2941L8.26584 18.9387L8.00294 21.9182C8.00294 22.0497 7.9153 22.1373 7.78385 22.1373C7.69622 22.1373 7.60859 22.0497 7.56477 21.9182L7.34568 18.9387L7.56477 14.2941C7.60859 14.1626 7.69622 14.075 7.78385 14.075ZM8.9231 13.0234C9.05455 13.0234 9.14218 13.111 9.14218 13.2425L9.36127 18.9387L9.14218 21.9182C9.14218 22.0497 9.05455 22.1373 8.9231 22.1373C8.79165 22.1373 8.70401 22.0497 8.66019 21.9182L8.48493 18.9387L8.66019 13.2425C8.70401 13.111 8.79165 13.0234 8.9231 13.0234ZM2.30672 17.2736C2.35054 17.2736 2.39435 17.3175 2.39435 17.3613L2.65726 18.9387L2.39435 20.4723C2.39435 20.5161 2.35054 20.5599 2.30672 20.5599C2.21909 20.5599 2.21909 20.5161 2.17527 20.4723L2 18.9387L2.17527 17.3613C2.21909 17.3175 2.21909 17.2736 2.30672 17.2736ZM3.31451 16.3097C3.40215 16.3097 3.44596 16.3535 3.44596 16.3973L3.75268 18.9387L3.44596 21.3924C3.44596 21.4801 3.40215 21.5239 3.31451 21.5239C3.2707 21.5239 3.22688 21.4801 3.22688 21.3924L2.92016 18.9387L3.22688 16.3973C3.22688 16.3535 3.2707 16.3097 3.31451 16.3097ZM4.45376 15.7839C4.49757 15.7839 4.58521 15.8715 4.58521 15.9591L4.89193 18.9387L4.58521 21.8306C4.58521 21.8744 4.49757 21.9621 4.45376 21.9621C4.36612 21.9621 4.3223 21.8744 4.27849 21.8306L4.0594 18.9387L4.27849 15.9591C4.3223 15.8715 4.36612 15.7839 4.45376 15.7839ZM5.54918 15.6962C5.63682 15.6962 5.72445 15.7839 5.72445 15.8715L5.98735 18.9387L5.72445 21.9182C5.72445 22.0059 5.63682 22.0497 5.54918 22.0497C5.46155 22.0497 5.37391 22.0059 5.37391 21.9182L5.15483 18.9387L5.37391 15.8715C5.37391 15.7839 5.46155 15.6962 5.54918 15.6962ZM16.1091 10.8325C16.2405 10.9202 16.2844 11.0078 16.3282 11.1392L16.5035 18.9387L16.3282 21.743C16.3282 21.9621 16.1529 22.1373 15.9338 22.1373C15.7586 22.1373 15.5833 21.9621 15.5395 21.743L15.4957 20.3408L15.408 18.9387L15.5395 11.1831V11.1392C15.5395 11.0516 15.6271 10.9202 15.7147 10.8763C15.7586 10.8325 15.8462 10.7887 15.9338 10.7887C16.0215 10.7887 16.0653 10.7887 16.1091 10.8325ZM14.9699 11.5336C15.0575 11.5774 15.1013 11.665 15.1451 11.7965L15.2766 18.9387L15.1451 21.5239L15.1013 21.7868C15.1013 21.9182 15.1013 22.0059 15.0137 22.0497C14.9699 22.0935 14.8822 22.1373 14.7508 22.1373C14.6631 22.1373 14.5755 22.0935 14.4879 22.0059C14.444 21.9621 14.4002 21.8744 14.4002 21.8306V21.7868C14.2688 18.9387 14.2688 18.9387 14.2688 18.9387L14.4002 11.8841V11.7965C14.4002 11.665 14.4879 11.5774 14.5755 11.5336C14.6193 11.4898 14.707 11.446 14.7508 11.446C14.8384 11.446 14.8822 11.4898 14.9699 11.5336ZM10.0623 12.4976C10.2376 12.4976 10.3252 12.629 10.3252 12.7605L10.5443 18.9387L10.3252 21.8744C10.3252 22.0059 10.2376 22.1373 10.0623 22.1373C9.93089 22.1373 9.84326 22.0059 9.79944 21.8744L9.62417 18.9387L9.79944 12.7605C9.79944 12.629 9.93089 12.4976 10.0623 12.4976ZM26.5814 15.258C28.4655 15.258 30.0429 16.7916 29.9991 18.7196C29.9991 20.6037 28.4655 22.1373 26.5814 22.1373H17.0293C16.8102 22.0935 16.6349 21.9621 16.6349 21.743V10.7887C16.6349 10.5696 16.7225 10.482 16.9854 10.3944C17.6427 10.1315 18.3876 10 19.1763 10C22.3749 10 24.9601 12.4099 25.223 15.521C25.6612 15.3457 26.0994 15.258 26.5814 15.258ZM13.5677 12.629C13.743 12.629 13.8744 12.7605 13.9182 12.9357L14.0935 18.9387L13.9182 21.8306C13.9182 22.0059 13.743 22.1373 13.5677 22.1373C13.3924 22.1373 13.261 22.0059 13.2172 21.8306L13.0857 18.9387L13.2172 12.9357C13.261 12.7605 13.3924 12.629 13.5677 12.629ZM11.2454 12.2785C11.3769 12.2785 11.5083 12.4099 11.5083 12.5414L11.7274 18.9387L11.5083 21.8744C11.5083 22.0059 11.3769 22.1373 11.2454 22.1373C11.0701 22.1373 10.9825 22.0059 10.9387 21.8744L10.7634 18.9387L10.9387 12.5414C10.9387 12.4099 11.0701 12.2785 11.2454 12.2785ZM12.3846 12.4099C12.5599 12.4099 12.6914 12.5414 12.6914 12.7167L12.8666 18.9387L12.6914 21.8306C12.6914 22.0059 12.5599 22.1373 12.3846 22.1373C12.2532 22.1373 12.1217 22.0059 12.0779 21.8306L11.9465 18.9387L12.0779 12.7167C12.0779 12.5414 12.2094 12.4099 12.3846 12.4099Z" fill="white"/>
</svg>
