<svg width="32" height="32" viewBox="0 0 32 32" fill="none" xmlns="http://www.w3.org/2000/svg">
<path d="M29.3857 9.12249C30 11.2724 30 15.8793 30 15.8793C30 15.8793 30 20.4351 29.3857 22.6362C29.0786 23.8647 28.106 24.7861 26.9287 25.0932C24.7276 25.6563 16.0256 25.6563 16.0256 25.6563C16.0256 25.6563 7.27239 25.6563 5.0713 25.0932C3.89397 24.7861 2.92139 23.8647 2.61426 22.6362C2 20.4351 2 15.8793 2 15.8793C2 15.8793 2 11.2724 2.61426 9.12249C2.92139 7.89397 3.89397 6.92139 5.0713 6.61426C7.27239 6 16.0256 6 16.0256 6C16.0256 6 24.7276 6 26.9287 6.61426C28.106 6.92139 29.0786 7.89397 29.3857 9.12249ZM13.159 20.0256L20.4278 15.8793L13.159 11.7331V20.0256Z" fill="white"/>
</svg>
