<svg width="32" height="32" viewBox="0 0 32 32" fill="none" xmlns="http://www.w3.org/2000/svg">
<path d="M23.9236 15.4583V11.9097H30V15.4583H23.9236ZM23.9236 7H30V10.5486H23.9236V7ZM23.9236 20.3681V16.8681H30V20.3681H23.9236ZM2 25.3264V21.7778H8.02778V25.3264H2ZM9.29167 25.3264V21.7778H15.3681V25.3264H9.29167ZM16.5833 25.3264L16.6319 21.7778H22.6597V25.3264H16.5833ZM23.9236 25.3264V21.7778H30V25.3264H23.9236ZM16.6319 20.3681V16.8681H22.6597V20.3681H16.6319ZM9.29167 20.3681V16.8681H15.3681V20.3681H9.29167ZM9.29167 15.4583V11.9097H15.3681V15.4583H9.29167Z" fill="white"/>
</svg>
