<svg width="32" height="32" viewBox="0 0 32 32" fill="none" xmlns="http://www.w3.org/2000/svg">
<path d="M16 2C23.6774 2 30 8.32258 30 16C30 23.7339 23.6774 30 16 30C8.26613 30 2 23.7339 2 16C2 8.32258 8.26613 2 16 2ZM21.6452 22.6048C22.0968 22.6048 22.4919 22.2661 22.4919 21.7581C22.4919 21.25 22.3226 21.0242 21.9839 20.7984C17.9194 18.4274 13.2339 18.3145 8.60484 19.3306C8.15323 19.4435 7.81452 19.7258 7.81452 20.2903C7.81452 20.7419 8.15323 21.1935 8.71774 21.1935C8.8871 21.1935 9.16935 21.0806 9.39516 21.0242C13.4597 20.2339 17.5242 20.2903 21.0806 22.4355C21.25 22.5484 21.4194 22.6048 21.6452 22.6048ZM23.1694 18.9355C23.7903 18.9355 24.2419 18.4274 24.2984 17.8065C24.2984 17.3548 24.0726 16.9597 23.621 16.7339C20.8548 15.0403 17.2984 14.1371 13.629 14.1371C11.3145 14.1371 9.67742 14.4758 8.09677 14.9274C7.53226 15.0968 7.25 15.4919 7.25 16.0565C7.25 16.6774 7.75806 17.1855 8.32258 17.1855C8.60484 17.1855 8.71774 17.0726 9 17.0161C13.6855 15.7742 18.9355 16.621 22.4919 18.7097C22.6613 18.7661 22.8871 18.9355 23.1694 18.9355ZM24.9194 14.6452C25.5968 14.6452 26.2177 14.0806 26.2177 13.2903C26.2177 12.6129 25.9355 12.2742 25.4839 12.0484C22.379 10.1855 18.0323 9.33871 13.9113 9.33871C11.4839 9.33871 9.28226 9.62097 7.30645 10.1855C6.79839 10.3548 6.29032 10.75 6.29032 11.5403C6.29032 12.2742 6.85484 12.8952 7.58871 12.8952C7.87097 12.8952 8.15323 12.7823 8.32258 12.7258C13.0081 11.4274 20.1774 11.9919 24.1855 14.4194C24.4677 14.5323 24.6371 14.6452 24.9194 14.6452Z" fill="white"/>
</svg>
