<svg width="33" height="33" viewBox="0 0 33 33" fill="none" xmlns="http://www.w3.org/2000/svg">
<path d="M12.975 3.58333C11.575 5.48889 10.5833 8.09444 10 11.4H4.16667C5.02222 9.53333 6.20833 7.91944 7.725 6.55833C9.24167 5.19722 10.9917 4.20556 12.975 3.58333ZM11.4 17C11.4 15.6778 11.4778 14.4333 11.6333 13.2667H22.3667C22.5222 14.4333 22.6 15.6778 22.6 17C22.6 18.3222 22.5222 19.5667 22.3667 20.7333H11.6333C11.4778 19.5667 11.4 18.3222 11.4 17ZM22.1333 11.4H11.8667C12.3722 8.79444 13.1111 6.75278 14.0833 5.275C15.0167 3.79722 15.9889 3.03889 17 3C18.0111 3.03889 19.0028 3.79722 19.975 5.275C20.9083 6.75278 21.6278 8.79444 22.1333 11.4ZM29.8333 11.4H24C23.4167 8.09444 22.425 5.48889 21.025 3.58333C23.0083 4.20556 24.7583 5.19722 26.275 6.55833C27.7917 7.91944 28.9778 9.53333 29.8333 11.4ZM21.025 30.4167C22.425 28.5111 23.4167 25.9056 24 22.6H29.8333C28.9778 24.4667 27.7917 26.0806 26.275 27.4417C24.7583 28.8028 23.0083 29.7944 21.025 30.4167ZM30.475 13.2667C30.825 14.4722 31 15.7167 31 17C31 18.2833 30.825 19.5278 30.475 20.7333H24.2917C24.4083 19.5278 24.4667 18.2833 24.4667 17C24.4667 15.7167 24.4083 14.4722 24.2917 13.2667H30.475ZM11.8667 22.6H22.1333C21.6278 25.2056 20.8889 27.2472 19.9167 28.725C18.9833 30.2028 18.0111 30.9611 17 31C15.9889 30.9611 14.9972 30.2028 14.025 28.725C13.0917 27.2472 12.3722 25.2056 11.8667 22.6ZM9.53333 17C9.53333 18.2833 9.61111 19.5278 9.76667 20.7333H3.525C3.175 19.5278 3 18.2833 3 17C3 15.7167 3.175 14.4722 3.525 13.2667H9.70833C9.59167 14.4722 9.53333 15.7167 9.53333 17ZM4.16667 22.6H10C10.5833 25.9056 11.575 28.5111 12.975 30.4167C10.9528 29.7944 9.18333 28.8028 7.66667 27.4417C6.15 26.0806 4.98333 24.4667 4.16667 22.6Z" fill="white"/>
</svg>
